<?xml version="1.0" encoding="UTF-8" standalone="no"?>
<!-- Created with Inkscape (http://www.inkscape.org/) -->

<svg
   width="800"
   height="500"
   viewBox="0 0 211.66666 132.29167"
   version="1.1"
   id="svg5"
   xmlns="http://www.w3.org/2000/svg"
   xmlns:svg="http://www.w3.org/2000/svg">
  <defs
     id="defs2" />
  <g
     id="layer1"
     transform="translate(-2.6458333,-14.437122)">
    <ellipse
       style="fill:#ffffff;fill-opacity:1;stroke:none;stroke-width:0.953008;stroke-dasharray:2.85903, 2.85903"
       id="path4376"
       cx="110.41629"
       cy="91.695541"
       rx="41.858086"
       ry="36.076141" />
    <path
       id="path1171"
       style="fill:#394873;fill-opacity:1;stroke-width:0.808237"
       d="m 108.30453,14.437122 c -4.62018,0 -5.22414,0.214 -7.75826,2.74807 -3.277744,3.277779 -3.674234,7.282068 -1.128535,11.401088 2.104925,3.405809 1.478885,3.892049 -7.277388,5.651519 -3.77856,0.7593 -9.052329,2.050649 -11.719509,2.870029 -2.667199,0.8194 -6.208514,1.70694 -7.87015,1.9721 -3.223919,0.5145 -4.657596,2.21151 -4.657596,5.513849 0,1.44952 -1.824156,3.630589 -6.863539,8.205619 -3.811329,3.460209 -8.175902,8.357028 -9.813777,11.010588 -1.622344,2.628409 -3.192225,4.778909 -3.488653,4.778909 -1.987846,0 -6.350413,-6.356329 -11.74101,-17.107637 -4.40164,-8.778829 -10.36794,-16.666237 -13.133042,-17.361587 -1.271547,-0.3198 -5.131332,0.032 -8.919054,0.8094 -11.0452987,2.271749 -13.18318429,4.008759 -7.9756562,6.479938 4.2656902,2.02417 8.1939752,6.984309 10.1234382,12.782398 0.95606,2.87297 2.819921,11.091259 4.141991,18.262687 2.64452,14.344508 3.829274,18.413637 7.461928,25.626036 3.074728,6.104702 11.538816,14.566842 17.980862,17.976462 2.850307,1.50854 6.276186,4.23894 8.309911,6.62339 1.903057,2.23122 5.841714,5.75608 8.752814,7.83342 2.911138,2.07738 5.619898,4.63689 6.019344,5.6876 0.85432,2.24711 7.586039,6.74662 10.09372,6.74662 0.958,0 2.796319,0.359 4.085129,0.7981 1.28879,0.4391 5.252809,1.33785 8.809079,1.99739 4.754719,0.8818 10.744093,1.12405 22.630913,0.9155 14.06661,-0.2466 17.12464,-0.5415 23.55915,-2.27221 8.17665,-2.19926 12.13179,-4.703 12.92454,-8.1823 0.731,-3.20836 8.65432,-8.78683 16.35248,-11.5129 17.64623,-6.24886 22.43663,-8.93667 30.84418,-17.30662 8.45206,-8.414392 13.62176,-18.72478 15.29727,-30.509288 3.13375,-22.041597 -14.89162,-40.177074 -31.48933,-31.681325 -1.55579,0.7963 -5.85387,4.022049 -9.55088,7.168079 -3.69705,3.145969 -7.24644,5.719829 -7.88718,5.719829 -0.6408,0 -3.79651,-2.29799 -7.0133,-5.106919 -4.61159,-4.02699 -5.9447,-5.699699 -6.30367,-7.908029 -0.2504,-1.54036 -0.7206,-3.22926 -1.04451,-3.753359 -0.8,-1.29442 -5.84884,-2.61875 -10.00209,-2.62486 -3.41952,-0.0027 -21.04341,-4.482309 -22.33325,-5.674329 -0.3782,-0.3495 0.2587,-2.24905 1.41474,-4.221629 2.39487,-4.0865 2.60161,-6.195719 0.9251,-9.437809 -1.64825,-3.187249 -5.78569,-4.917799 -11.75619,-4.917799 z m 82.68643,37.178714 c 14.16245,0 19.08502,23.285816 8.62521,40.800153 -3.89234,6.517429 -11.93064,14.387311 -17.28013,16.918051 -4.4011,2.08203 -8.88457,2.72544 -9.70828,1.39257 -0.238,-0.3845 0.099,-3.20348 0.7469,-6.26384 1.54194,-7.278362 1.51601,-16.42225 -0.068,-24.079819 -1.23493,-5.971759 -1.21806,-6.348499 0.5415,-12.275608 1.39051,-4.684069 2.65852,-7.052329 5.42029,-10.124038 4.4142,-4.909629 7.09792,-6.367529 11.72208,-6.367529 z m -82.51199,9.398038 A 30.569231,30.569231 0 0 1 139.0482,91.583129 30.569231,30.569231 0 0 1 108.47897,122.15243 30.569231,30.569231 0 0 1 77.909689,91.583129 30.569231,30.569231 0 0 1 108.47897,61.013874 Z m -8.09633,4.445289 A 27.512303,27.512303 0 0 0 82.526238,82.982581 l 12.964358,0.570599 a 15.284613,15.284613 0 0 1 5.456934,-5.257929 z m 16.19263,0 -0.5649,12.831698 a 15.284613,15.284613 0 0 1 5.4677,5.261669 l 12.9536,-0.569999 A 27.512303,27.512303 0 0 0 116.57526,65.459143 Z m -8.0963,13.896398 A 12.227692,12.227692 0 0 0 96.251406,91.583779 12.227692,12.227692 0 0 0 108.47897,103.81134 12.227692,12.227692 0 0 0 120.70654,91.583779 12.227692,12.227692 0 0 0 108.47897,79.355561 Z m -13.541264,19.301507 -12.755198,0.5611 a 27.512303,27.512303 0 0 0 18.157182,18.488942 l 0.5655,-12.84366 a 15.284613,15.284613 0 0 1 -5.967504,-6.206402 z m 27.093294,0 a 15.284613,15.284613 0 0 1 -5.97763,6.208932 l 0.5649,12.84171 a 27.512303,27.512303 0 0 0 18.15719,-18.489522 z" />
  </g>
</svg>
